<?xml version="1.0" standalone="no"?><!DOCTYPE svg PUBLIC "-//W3C//DTD SVG 1.1//EN" "http://www.w3.org/Graphics/SVG/1.1/DTD/svg11.dtd"><svg t="1760428806212" class="icon" viewBox="0 0 1024 1024" version="1.1" xmlns="http://www.w3.org/2000/svg" p-id="2387" xmlns:xlink="http://www.w3.org/1999/xlink" width="200" height="200"><path d="M512 0a512 512 0 1 0 512 512A512 512 0 0 0 512 0z m-56.4992 776.9344a972.4928 972.4928 0 0 1-216.96-24.448 70.5536 70.5536 0 0 1-50.176-67.584v-14.336a105.8304 105.8304 0 0 1 63.0528-96.8704 569.9584 569.9584 0 0 1 112-29.9776 15.9232 15.9232 0 0 0 8.6272-26.112 0.5888 0.5888 0 0 0 0.4608 0.3072 215.5008 215.5008 0 0 1-28.6208-45.056 59.2128 59.2128 0 0 1-26.5984-24.5248c-13.184-22.1696-11.5456-47.2064 3.6608-55.7824l1.5616-0.5376v-2.432h-0.7168v-66.7904h0.3072a113.4592 113.4592 0 0 1 113.2544-106.7264 112.2816 112.2816 0 0 1 72.8832 26.7008h0.7936a80.3072 80.3072 0 0 1 80.2048 80.256v66.944h-0.6912v2.4064a11.136 11.136 0 0 1 1.5104 0.5888c15.36 8.6272 16.9472 33.5104 3.7632 55.7568a59.9808 59.9808 0 0 1-26.6496 24.5248 201.8816 201.8816 0 0 1-6.3744 12.3904 177.0752 177.0752 0 0 0-107.0848 162.7392h-0.1792a176.1792 176.1792 0 0 0 53.9392 127.232c-17.2544 0.8192-34.5344 1.2544-51.968 1.2544z m217.344 44.2624a165.0944 165.0944 0 1 1 165.12-165.0944 165.12 165.12 0 0 1-165.12 165.0944z" fill="#e6e6e6" p-id="2388"></path><path d="M681.5232 719.5904a99.84 99.84 0 0 0-5.504 21.2992h-0.896a84.3264 84.3264 0 0 0-5.12-20.7872l-53.9136-148.8128h-57.4208l85.5808 210.4832h60.032l86.784-210.432h-55.6288z" fill="#e6e6e6" p-id="2389"></path></svg>